<?xml version="1.0" encoding="UTF-8"?> <svg xmlns="http://www.w3.org/2000/svg" xmlns:xlink="http://www.w3.org/1999/xlink" xml:space="preserve" id="Layer_1" x="0" y="0" style="enable-background:new 0 0 1788 488" version="1.1" viewBox="0 0 1788 488"><style>.st0,.st2,.st3{clip-path:url(#SVGID_2_)}.st0{fill:none;stroke:#000;stroke-width:3.897;stroke-linecap:square;stroke-miterlimit:10}.st2,.st3{fill:#fff}.st3{fill:none;stroke:#000;stroke-width:4;stroke-linecap:round;stroke-miterlimit:10}.st5{fill:#ed1c24}.st5,.st6{clip-path:url(#SVGID_2_)}</style><defs><path id="SVGID_1_" d="M-58-288h1920V792H-58z"></path></defs><clipPath id="SVGID_2_"><use xlink:href="#SVGID_1_" style="overflow:visible"></use></clipPath><path d="M57.4 323c-20.8-29-33-64.5-33-102.9 0-31.5 8.3-61.1 22.7-86.8" class="st0"></path><path d="M39.6 129.1c-15.2 26.9-23.9 58-23.9 91.1 0 40.2 12.8 77.4 34.4 107.7" class="st0"></path><path d="M64.8 318.2c-19.8-27.6-31.5-61.4-31.5-98 0-29.9 7.8-58.1 21.6-82.4" class="st0"></path><path d="M72.1 313.3c-18.9-26.2-30-58.3-30-93.1 0-28.4 7.4-55 20.4-78.1" class="st0"></path><path d="M79.4 308.4c-18-24.8-28.6-55.3-28.6-88.2 0-26.8 7-51.9 19.3-73.7" class="st0"></path><path d="M86.7 303.6c-17-23.4-27.1-52.2-27.1-83.4 0-25.2 6.6-48.8 18.1-69.3" class="st0"></path><path d="M94 298.7c-16.1-22-25.7-49.1-25.7-78.5 0-23.6 6.2-45.8 16.9-65" class="st0"></path><path d="M101.4 293.8c-15.2-20.6-24.2-46.1-24.2-73.6 0-22 5.7-42.7 15.8-60.6" class="st0"></path><path d="M108.7 288.9C94.4 269.7 86 246 86 220.2c0-20.4 5.3-39.6 14.6-56.3" class="st0"></path><path d="M123.3 279.2c-12.4-16.4-19.8-36.8-19.8-59 0-17.3 4.5-33.5 12.3-47.5" class="st0"></path><path d="M108.2 168.3c-8.6 15.4-13.5 33.1-13.5 51.9 0 24 7.9 46.1 21.3 63.9M138 269.4c-10.6-13.6-16.9-30.7-16.9-49.2 0-14.1 3.6-27.3 10-38.8" class="st0"></path><path d="M123.5 177c-7.1 12.8-11.2 27.5-11.2 43.2 0 20.4 6.8 39.1 18.3 54.1M145.4 264.5c-9.7-12.2-15.5-27.6-15.5-44.4 0-12.5 3.2-24.2 8.9-34.5" class="st0"></path><path d="M131.1 181.4c-6.4 11.5-10 24.7-10 38.8 0 18.6 6.3 35.6 16.9 49.2M152.7 259.7c-8.8-10.8-14-24.5-14-39.5 0-10.9 2.8-21.2 7.7-30.1" class="st0"></path><path d="M160 254.8c-7.8-9.4-12.6-21.4-12.6-34.6 0-9.3 2.4-18.1 6.5-25.7M350.6 323c20.8-29 33-64.5 33-102.9 0-31.5-8.3-61.1-22.7-86.8" class="st0"></path><path d="M368.5 129.1c15.2 26.9 23.9 58 23.9 91.1 0 40.2-12.8 77.4-34.4 107.7" class="st0"></path><path d="M343.3 318.2c19.8-27.6 31.5-61.4 31.5-98 0-29.9-7.8-58.1-21.6-82.4" class="st0"></path><path d="M336 313.3c18.9-26.2 30-58.3 30-93.1 0-28.4-7.4-55-20.4-78.1" class="st0"></path><path d="M328.6 308.4c18-24.8 28.6-55.3 28.6-88.2 0-26.8-7-51.9-19.3-73.7" class="st0"></path><path d="M321.3 303.6c17-23.4 27.1-52.2 27.1-83.4 0-25.2-6.6-48.8-18.1-69.3" class="st0"></path><path d="M314 298.7c16.1-22 25.7-49.1 25.7-78.5 0-23.6-6.2-45.8-16.9-65" class="st0"></path><path d="M306.7 293.8c15.2-20.6 24.2-46.1 24.2-73.6 0-22-5.7-42.7-15.8-60.6" class="st0"></path><path d="M299.4 288.9c14.3-19.2 22.7-43 22.7-68.8 0-20.4-5.3-39.6-14.6-56.3" class="st0"></path><path d="M284.7 279.2c12.4-16.4 19.8-36.8 19.8-59 0-17.3-4.5-33.5-12.3-47.5" class="st0"></path><path d="M299.8 168.3c8.6 15.4 13.5 33.1 13.5 51.9 0 24-7.9 46.1-21.3 63.9M270 269.4c10.6-13.6 16.9-30.7 16.9-49.2 0-14.1-3.6-27.3-10-38.8" class="st0"></path><path d="M284.6 177c7.1 12.8 11.2 27.5 11.2 43.2 0 20.4-6.8 39.1-18.3 54.1M262.7 264.5c9.7-12.2 15.5-27.6 15.5-44.4 0-12.5-3.2-24.2-8.9-34.5" class="st0"></path><path d="M276.9 181.4c6.4 11.5 10 24.7 10 38.8 0 18.6-6.3 35.6-16.9 49.2M255.4 259.7c8.8-10.8 14-24.5 14-39.5 0-10.9-2.8-21.2-7.7-30.1" class="st0"></path><path d="M248 254.8c7.8-9.4 12.6-21.4 12.6-34.6 0-9.3-2.4-18.1-6.5-25.7" class="st0"></path><circle cx="204" cy="219.8" r="197.3" class="st0"></circle><ellipse cx="204" cy="222.7" rx="49.8" ry="53.2" style="clip-path:url(#SVGID_2_);fill:none;stroke:#000;stroke-width:3.769;stroke-linecap:round;stroke-miterlimit:10"></ellipse><path d="m213.1 308.4 3.3-55.1c0-.3-.1-.6-.3-.8 0 0-70.7 91.1-72.4 92.8-1.3 1.4-3.6-.3-6.5-1-3.5-.9-6.8 2.1-6.5 5.7l4.8 49c.2 1.8 1.4 3.3 3 3.9 2.7 1 5.5-.7 6.1-3.5l7.3-38.8c0-.2.1-.4.3-.5l60.9-51.7z" class="st2"></path><path d="m213.1 308.4 3.3-55.1c0-.3-.1-.6-.3-.8 0 0-70.7 91.1-72.4 92.8-1.3 1.4-3.6-.3-6.5-1-3.5-.9-6.8 2.1-6.5 5.7l4.8 49c.2 1.8 1.4 3.3 3 3.9 2.7 1 5.5-.7 6.1-3.5l7.3-38.8c0-.2.1-.4.3-.5l60.9-51.7" class="st3"></path><path d="m234.7 240.7-15-59.4c-.1-.3 0-.6.2-.8l13-13.8.2-.2 43.3-23.7c.7-.4.6-1.4-.1-1.6l-59.2-20.9c-.4-.1-.8 0-1 .3l-28.9 39.6c-.2.3-.2.7-.1 1l46 80.2c.5.9 1.8.3 1.6-.7" class="st2"></path><path d="M199.8 83 170 148.3c-.1.1-.2.3-.3.4-2.1 1.4-18.8 13-19.9 17.4-1.1 4.8-6.7 26 0 34.9 6.4 8.6 57.2 58.9 61.1 62.8.2.2.3.4.3.6l5.4 120.4c0 .1 0 .3-.1.4l-5.8 14.1c0 6.1 5.1 8.7 8.4 8.6 3.4-.1 24.3 0 24.3 0h16.2c.5 0 1-.1 1.4-.2 3.8-1.2 4.7-6.2 1.5-8.6L236 384.8c-.2-.2-.4-.5-.3-.8l9.9-100.9c0-.1-11-42.3-11-42.3 0-.1-.1-.2-.1-.2L197.3 177" class="st2"></path><path d="M199.8 83 170 148.3c-.1.1-.2.3-.3.4-2.1 1.4-18.8 13-19.9 17.4-1.1 4.8-6.7 26 0 34.9 6.4 8.6 57.2 58.9 61.1 62.8.2.2.3.4.3.6l5.4 120.4c0 .1 0 .3-.1.4l-5.8 14.1c0 6.1 5.1 8.7 8.4 8.6 3.4-.1 24.3 0 24.3 0h16.2c.5 0 1-.1 1.4-.2 3.8-1.2 4.7-6.2 1.5-8.6L236 384.8c-.2-.2-.4-.5-.3-.8l9.9-100.9c0-.1-11-42.3-11-42.3 0-.1-.1-.2-.1-.2L197.3 177" class="st3"></path><path d="M130.3 47.1c0 21.5-17.4 38.9-38.9 38.9C70 86 52.6 68.6 52.6 47.1 52.6 25.7 70 8.3 91.5 8.3c21.4 0 38.8 17.4 38.8 38.8" class="st2"></path><circle cx="91.5" cy="47.1" r="38.9" style="clip-path:url(#SVGID_2_);fill:none;stroke:#000;stroke-width:4.318;stroke-linecap:round;stroke-miterlimit:10"></circle><path d="M208.4 104.4 203.9 88c-.6-2.3-2.3-4.2-4.5-5.2l-55.7-24.2c-.7-.3-1.5-.5-2.3-.6l-53.7-5.7c-2-.2-4 .3-5.6 1.5-4.9 3.6-17.6 10.7-25.3 9.4-6.3-1.1-6.8-9.6-6.2-16.1.4-3.8 5.3-6.7 9.1-6.4 0 0 24.6 3.2 24.9 3.2l69.9-3.6c1 0 1.9.1 2.8.5l23.8 9.1c.7.3 1.5.4 2.2.5l39.4 3c1.9.1 3.7 1 5 2.3l54.8 55.4 20 22c1.8 2 2.5 4.7 1.9 7.2l-18.7 77.3c-.3 1.2-.8 2.2-1.6 3.2l-39.1 55c-.3.4-.6.8-.8 1.2l-8.1 14.7c-.7 1.3-1.7 2.3-3 3.1l-3.8 2.2c-.6.4-1.3.7-2.1.8h-.2c-5 1.3-9.9-2.5-9.9-7.7 0 0 .2-2 .6-3l5.2-13c.6-1.5 1.7-2.8 3-3.7 4.3-2.8 13.7-9.1 14.4-10.4.7-1.5 15.6-30.7 17.2-33.6.2-.4.4-.9.6-1.3l9.5-28.4c.2-.6.3-1.3.4-1.9l3.8-49.8" class="st2"></path><path d="M208.4 104.4 203.9 88c-.6-2.3-2.3-4.2-4.5-5.2l-55.7-24.2c-.7-.3-1.5-.5-2.3-.6l-53.7-5.7c-2-.2-4 .3-5.6 1.5-4.9 3.6-17.6 10.7-25.3 9.4-6.3-1.1-6.8-9.6-6.2-16.1.4-3.8 5.3-6.7 9.1-6.4 0 0 24.6 3.2 24.9 3.2l69.9-3.6c1 0 1.9.1 2.8.5l23.8 9.1c.7.3 1.5.4 2.2.5l39.4 3c1.9.1 3.7 1 5 2.3l54.8 55.4 20 22c1.8 2 2.5 4.7 1.9 7.2l-18.7 77.3c-.3 1.2-.8 2.2-1.6 3.2l-39.1 55c-.3.4-.6.8-.8 1.2l-8.1 14.7c-.7 1.3-1.7 2.3-3 3.1l-3.8 2.2c-.6.4-1.3.7-2.1.8h-.2c-5 1.3-9.9-2.5-9.9-7.7 0 0 .2-2 .6-3l5.2-13c.6-1.5 1.7-2.8 3-3.7 4.3-2.8 13.7-9.1 14.4-10.4.7-1.5 15.6-30.7 17.2-33.6.2-.4.4-.9.6-1.3l9.5-28.4c.2-.6.3-1.3.4-1.9l3.8-49.8" class="st3"></path><path d="M254.8 78.8s21.9-17.1 29.8-16.8c7.9.3 12.7-.1 20.4 11.7 8.4 12.8.6 24-6.7 30.1-7.3 6.1-26.8 12.3-33.5 12.3-6.7 0-14.5-5.6-16.2-8.9-1.7-3.3-1.3-24.2 6.2-28.4" class="st2"></path><path d="M254.8 78.8s21.9-17.1 29.8-16.8c7.9.3 12.7-.1 20.4 11.7 8.4 12.8.6 24-6.7 30.1-7.3 6.1-26.8 12.3-33.5 12.3-6.7 0-14.5-5.6-16.2-8.9-1.7-3.3-1.3-24.2 6.2-28.4zM278.2 141.8l-45.1 24.7c-.1 0-.2.1-.2.2l-13 13.8c-.2.2-.3.5-.2.8l16.6 65.7" class="st3"></path><path d="M423.7 90.7h48.9c31.6 0 52.9 1.5 64.1 4.3 11.1 2.9 19.6 7.7 25.4 14.3 5.8 6.6 9.4 14 10.9 22.1 1.5 8.1 2.2 24.1 2.2 47.9v88c0 22.6-1.1 37.7-3.2 45.3-2.1 7.6-5.8 13.6-11.1 17.9-5.3 4.3-11.8 7.3-19.6 9-7.8 1.7-19.5 2.6-35.1 2.6h-82.5V90.7zm65.4 43v165.4c9.4 0 15.2-1.9 17.4-5.7 2.2-3.8 3.3-14.1 3.3-30.8v-97.7c0-11.4-.4-18.7-1.1-21.9-.7-3.2-2.4-5.6-5-7.1s-7.5-2.2-14.6-2.2M598 90.7h65.4v251.4H598zM827.5 166.8h-60.7v-18.6c0-8.7-.8-14.2-2.3-16.6-1.6-2.4-4.1-3.6-7.8-3.6-3.9 0-6.9 1.6-8.9 4.8-2 3.2-3 8.1-3 14.6 0 8.4 1.1 14.7 3.4 19 2.2 4.2 8.3 9.4 18.5 15.4 29.1 17.3 47.4 31.4 55 42.5 7.6 11.1 11.3 28.9 11.3 53.6 0 17.9-2.1 31.1-6.3 39.6-4.2 8.5-12.3 15.6-24.3 21.4-12 5.7-26 8.6-41.9 8.6-17.5 0-32.4-3.3-44.8-9.9-12.4-6.6-20.5-15.1-24.3-25.3-3.8-10.2-5.7-24.8-5.7-43.6V252h60.7v30.6c0 9.4.9 15.5 2.6 18.2 1.7 2.7 4.7 4 9.1 4 4.3 0 7.6-1.7 9.7-5.1 2.1-3.4 3.2-8.5 3.2-15.2 0-14.8-2-24.5-6.1-29-4.1-4.6-14.3-12.2-30.6-22.8-16.3-10.8-27-18.6-32.3-23.4-5.3-4.9-9.7-11.6-13.1-20.2-3.5-8.6-5.2-19.6-5.2-32.9 0-19.3 2.5-33.3 7.4-42.2 4.9-8.9 12.9-15.9 23.8-20.9 11-5 24.2-7.5 39.8-7.5 17 0 31.4 2.7 43.4 8.2 12 5.5 19.9 12.4 23.8 20.7 3.9 8.3 5.8 22.5 5.8 42.5v9.8zM1006.6 200.1h-65.4v-43.7c0-12.7-.7-20.6-2.1-23.8-1.4-3.1-4.5-4.7-9.2-4.7-5.4 0-8.8 1.9-10.2 5.7-1.5 3.8-2.2 12.1-2.2 24.8v116.8c0 12.2.7 20.2 2.2 23.9 1.4 3.7 4.7 5.6 9.8 5.6 4.9 0 8-1.9 9.5-5.6 1.5-3.7 2.3-12.5 2.3-26.3v-31.6h65.4v9.8c0 26-1.8 44.5-5.5 55.4-3.7 10.9-11.8 20.4-24.4 28.6-12.6 8.2-28.1 12.3-46.5 12.3-19.2 0-34.9-3.5-47.4-10.4-12.4-6.9-20.7-16.5-24.7-28.8s-6.1-30.7-6.1-55.4v-73.5c0-18.1.6-31.7 1.9-40.8 1.2-9.1 4.9-17.8 11.1-26.2 6.2-8.4 14.7-15 25.6-19.8 10.9-4.8 23.5-7.2 37.7-7.2 19.3 0 35.1 3.7 47.7 11.2 12.5 7.4 20.8 16.7 24.7 27.8 3.9 11.1 5.9 28.4 5.9 51.9v24zM1178.2 237.9c0 25.3-.6 43.1-1.8 53.7-1.2 10.5-4.9 20.1-11.2 28.8-6.3 8.7-14.7 15.4-25.4 20-10.7 4.7-23.1 7-37.3 7-13.5 0-25.5-2.2-36.3-6.6-10.7-4.4-19.3-11-25.9-19.8-6.5-8.8-10.4-18.4-11.6-28.7-1.2-10.4-1.9-28.5-1.9-54.4v-43c0-25.3.6-43.1 1.8-53.7 1.2-10.5 4.9-20.1 11.2-28.8 6.3-8.7 14.7-15.4 25.4-20 10.7-4.7 23.1-7 37.3-7 13.5 0 25.5 2.2 36.3 6.6 10.7 4.4 19.3 11 25.9 19.8 6.5 8.8 10.4 18.4 11.6 28.7 1.2 10.4 1.9 28.5 1.9 54.3v43.1zm-65.4-82.6c0-11.7-.6-19.2-1.9-22.4-1.3-3.3-4-4.9-8-4.9-3.4 0-6 1.3-7.8 4-1.8 2.6-2.7 10.4-2.7 23.4v117.4c0 14.6.6 23.6 1.8 27 1.2 3.4 4 5.1 8.3 5.1 4.4 0 7.3-2 8.5-5.9 1.2-3.9 1.9-13.3 1.9-28.1V155.3zM1200.6 90.7h65.2c20.6 0 36.2 1.6 46.8 4.8 10.6 3.2 19.2 9.7 25.7 19.5s9.8 25.5 9.8 47.3c0 14.7-2.3 24.9-6.9 30.7-4.6 5.8-13.7 10.2-27.3 13.3 15.1 3.4 25.4 9.1 30.7 17 5.4 7.9 8.1 20.1 8.1 36.4V283c0 17-1.9 29.6-5.8 37.8-3.9 8.2-10.1 13.8-18.6 16.8-8.5 3-25.9 4.5-52.2 4.5h-75.6V90.7zm65.4 43v55.9c2.8-.1 5-.2 6.5-.2 6.4 0 10.5-1.6 12.3-4.7 1.8-3.2 2.6-12.2 2.6-27.1 0-7.9-.7-13.4-2.2-16.5-1.5-3.2-3.3-5.1-5.7-6-2.2-.8-6.8-1.3-13.5-1.4m0 95V299c9.2-.3 15.1-1.8 17.6-4.3 2.5-2.6 3.8-9 3.8-19.1v-23.4c0-10.8-1.1-17.3-3.4-19.6-2.3-2.3-8.3-3.6-18-3.9M1524.5 237.9c0 25.3-.6 43.1-1.8 53.7-1.2 10.5-4.9 20.1-11.2 28.8-6.3 8.7-14.7 15.4-25.4 20-10.7 4.7-23.1 7-37.3 7-13.5 0-25.5-2.2-36.3-6.6-10.7-4.4-19.3-11-25.9-19.8-6.5-8.8-10.4-18.4-11.6-28.7-1.2-10.4-1.9-28.5-1.9-54.4v-43c0-25.3.6-43.1 1.8-53.7 1.2-10.5 4.9-20.1 11.2-28.8 6.3-8.7 14.7-15.4 25.4-20 10.7-4.7 23.1-7 37.3-7 13.5 0 25.5 2.2 36.3 6.6 10.7 4.4 19.3 11 25.9 19.8 6.5 8.8 10.4 18.4 11.6 28.7 1.2 10.4 1.9 28.5 1.9 54.3v43.1zm-65.4-82.6c0-11.7-.6-19.2-1.9-22.4-1.3-3.3-4-4.9-8-4.9-3.4 0-6 1.3-7.8 4-1.8 2.6-2.7 10.4-2.7 23.4v117.4c0 14.6.6 23.6 1.8 27 1.2 3.4 4 5.1 8.3 5.1 4.4 0 7.3-2 8.5-5.9 1.2-3.9 1.9-13.3 1.9-28.1V155.3zM1612.3 90.7v201.1h39.8v50.3h-105.2V90.7zM1669.9 90.7h109V141h-43.7v47.7h40.9v47.8h-40.9v55.3h48v50.3h-113.3z" class="st5"></path><path d="M559.7 384.4H571l18.8 57.3 19.2-57.6h8.8l19.3 57.6 18.8-57.3h11l-25.1 71.9h-9.2L613.4 400l-19.3 56.3h-9.4z" class="st6"></path><path d="M665.3 384.4h11.3l18.8 57.3 19.1-57.6h8.9l19.3 57.6 18.8-57.3h11l-25.1 71.9h-9.3L719 400l-19.4 56.3h-9.3z" class="st6"></path><path d="M770.8 384.4h11.3l18.8 57.3 19.2-57.6h8.8l19.4 57.6 18.7-57.3h11.1l-25.2 71.9h-9.2L824.5 400l-19.3 56.3h-9.4zM872.5 441.3h12.7v14.5h-12.7zM887.7 420.3v-.3c0-23.2 17-37.1 34.1-37.1 13.2 0 21.8 7 27.3 15.2V355h10.6v100.7h-10.6v-14.4c-5.9 8.4-14.1 15.9-27.3 15.9-17.1.1-34.1-13.5-34.1-36.9m61.9-.2v-.3c0-16.4-12.6-27.5-25.8-27.5-13.8 0-25.1 10.2-25.1 27.5v.3c0 17 11.5 27.6 25.1 27.6 13.2 0 25.8-11.1 25.8-27.6M968 357.1h12.1v11.7H968v-11.7zm.7 27.3h10.6v71.3h-10.6v-71.3zM981.7 446.6l5.4-7.6c7.7 5.9 16.3 9.1 24.7 9.1 8.7 0 14.8-4.3 14.8-11.3v-.3c0-7-8.4-10.1-17.8-12.6-11-3.3-23.6-6.9-23.6-20.1v-.3c0-12.3 10.2-20.4 24.3-20.4 8.8 0 18.4 3 25.7 7.9l-4.8 8c-6.6-4.3-14.1-6.9-21.1-6.9-8.4 0-13.8 4.4-13.8 10.4v.3c0 6.8 8.8 9.4 18.4 12.3 11 3.3 22.9 7.6 22.9 20.4v.3c0 13.5-11.2 21.4-25.4 21.4-10.5-.1-21.5-4.1-29.7-10.6" class="st6"></path><path d="M1035.8 420.4v-.3c0-20.3 15.6-37.3 36.6-37.3 13.5 0 21.8 5.5 28.6 12.7l-7 7.5c-5.7-5.9-11.9-10.8-21.7-10.8-14.5 0-25.5 12.1-25.5 27.6v.3c0 15.5 11.3 27.7 26.2 27.7 9.2 0 16.1-4.6 21.8-10.6l6.8 6.3c-7.2 8.1-15.7 13.8-29.1 13.8-21.1.1-36.7-16.9-36.7-36.9" class="st6"></path><path d="M1097.3 420.4v-.3c0-20.3 15.9-37.3 37.3-37.3 21.5 0 37.1 16.8 37.1 37v.3c0 20.3-15.9 37.3-37.4 37.3-21.4 0-37-16.8-37-37m63.5 0v-.3c0-15.3-11.5-27.9-26.5-27.9-15.5 0-26.1 12.6-26.1 27.6v.3c0 15.3 11.3 27.7 26.4 27.7 15.4.1 26.2-12.5 26.2-27.4M1186.3 442.1v13.7h-10.6V355h10.6v43.7c5.9-8.6 14.1-15.9 27.3-15.9 17.1 0 34.1 13.5 34.1 37v.3c0 23.2-16.8 37.1-34.1 37.1-13.3.1-21.8-7-27.3-15.1m50.5-21.8v-.3c0-17-11.5-27.6-25.1-27.6-13.2 0-25.8 11.2-25.8 27.5v.3c0 16.6 12.6 27.6 25.8 27.6 13.8-.1 25.1-10.3 25.1-27.5M1247.9 420.4v-.3c0-20.3 15.9-37.3 37.3-37.3 21.5 0 37.1 16.8 37.1 37v.3c0 20.3-15.9 37.3-37.4 37.3-21.4 0-37-16.8-37-37m63.5 0v-.3c0-15.3-11.5-27.9-26.5-27.9-15.5 0-26.1 12.6-26.1 27.6v.3c0 15.3 11.3 27.7 26.4 27.7 15.4.1 26.2-12.5 26.2-27.4M1326.9 355h10.6v100.7h-10.6zM1352.9 424.4c1.5 15 12.6 23.7 25.1 23.7 9.9 0 16.6-4 22.5-10.1l6.6 5.9c-7.2 8.1-15.7 13.4-29.4 13.4-19.5 0-35.6-15-35.6-37.3 0-20.7 14.4-37.3 34.2-37.3 21.1 0 33.3 16.8 33.3 37.8v1.7c0 .6 0 1.2-.1 2.1h-56.6zm46-8.5c-1.1-12.8-8.8-24-22.8-24-12.1 0-21.7 10.2-23.2 24h46zM1411.9 441.3h12.7v14.5h-12.7zM1428.1 468.2l4.8-8.3c8.3 5.9 17.1 9.1 27.5 9.1 15.9 0 25.9-8.7 25.9-25.4v-8.4c-6.2 8.3-14.9 15-28 15-17.1 0-33.5-13-33.5-33.4v-.3c0-20.8 16.4-33.7 33.5-33.7 13.4 0 21.9 6.6 27.9 14.4v-12.8h10.6v58.9c0 11-3.2 19.3-9.1 25.3-6.5 6.5-15.7 9.5-27.2 9.5-12 0-22.9-3.3-32.4-9.9m58.5-51.5v-.3c0-14.6-12.7-24.2-26.2-24.2-13.7 0-24.7 9.4-24.7 24v.3c0 14.4 11.5 24.3 24.7 24.3 13.5 0 26.2-9.8 26.2-24.1M1505.3 384.4h10.6V403c5.1-11.7 15.7-20.6 29.1-19.9v11.5h-.8c-15.6 0-28.3 11.2-28.3 32.7v28.4h-10.6v-71.3z" class="st6"></path></svg> 